<svg width="100" height="100" viewBox="0 0 100 100" fill="none" xmlns="http://www.w3.org/2000/svg">
<g opacity="0.76">
<path d="M94.8944 26.5679C93.8141 22.5516 90.6475 19.3856 86.6318 18.3042C79.2955 16.2969 49.95 16.2969 49.95 16.2969C49.95 16.2969 20.6057 16.2969 13.2694 18.2281C9.33094 19.3084 6.08711 22.5522 5.00679 26.5679C3.07617 33.9036 3.07617 49.1168 3.07617 49.1168C3.07617 49.1168 3.07617 64.4067 5.00679 71.6657C6.08826 75.6814 9.25369 78.8474 13.27 79.9289C20.6829 81.9368 49.9512 81.9368 49.9512 81.9368C49.9512 81.9368 79.2955 81.9368 86.6318 80.0056C90.6481 78.9247 93.8141 75.7587 94.8956 71.7429C96.8256 64.4067 96.8256 49.1941 96.8256 49.1941C96.8256 49.1941 96.9028 33.9036 94.8944 26.5679ZM40.6071 63.1713V35.0623L65.0093 49.1168L40.6071 63.1713Z" fill="black"/>
</g>
</svg>
