<svg width="100" height="100" viewBox="0 0 100 100" fill="none" xmlns="http://www.w3.org/2000/svg">
<g opacity="0.76" clip-path="url(#clip0_112_8)">
<path d="M99.9023 29.4003C99.668 24.0869 98.8088 20.434 97.5779 17.2687C96.3081 13.9088 94.3546 10.9007 91.7952 8.40008C89.2946 5.86052 86.2667 3.88717 82.9457 2.63723C79.7621 1.40637 76.1283 0.547134 70.8149 0.312866C65.4618 0.0587578 63.7624 0 50.1856 0C36.6087 0 34.9093 0.0587578 29.5761 0.293026C24.2627 0.527294 20.6098 1.38729 17.4452 2.61739C14.0846 3.88717 11.0765 5.84068 8.57586 8.40008C6.0363 10.9007 4.06372 13.9287 2.81302 17.2496C1.58215 20.434 0.722916 24.067 0.488647 29.3804C0.234539 34.7335 0.175781 36.4329 0.175781 50.0098C0.175781 63.5866 0.234539 65.286 0.468807 70.6193C0.703075 75.9326 1.56308 79.5856 2.79394 82.7508C4.06372 86.1107 6.0363 89.1188 8.57586 91.6195C11.0765 94.159 14.1044 96.1324 17.4254 97.3823C20.6098 98.6132 24.2428 99.4724 29.557 99.7067C34.8894 99.9417 36.5896 99.9997 50.1665 99.9997C63.7433 99.9997 65.4427 99.9417 70.776 99.7067C76.0894 99.4724 79.7423 98.6132 82.9068 97.3823C89.6273 94.784 94.9407 89.4706 97.539 82.7508C98.7691 79.5665 99.6291 75.9326 99.8634 70.6193C100.098 65.286 100.156 63.5866 100.156 50.0098C100.156 36.4329 100.137 34.7335 99.9023 29.4003ZM90.8971 70.2286C90.6819 75.1123 89.8616 77.7496 89.1778 79.5077C87.4975 83.8642 84.04 87.3217 79.6835 89.0021C77.9253 89.6858 75.269 90.5061 70.4043 90.7205C65.1299 90.9556 63.548 91.0136 50.2054 91.0136C36.8628 91.0136 35.2611 90.9556 30.0057 90.7205C25.1219 90.5061 22.4847 89.6858 20.7265 89.0021C18.5586 88.2008 16.5852 86.931 14.9835 85.2706C13.323 83.649 12.0533 81.6955 11.252 79.5276C10.5683 77.7694 9.74796 75.1123 9.53354 70.2484C9.2985 64.9739 9.24051 63.3913 9.24051 50.0487C9.24051 36.7061 9.2985 35.1044 9.53354 29.8497C9.74796 24.966 10.5683 22.3287 11.252 20.5706C12.0533 18.4019 13.323 16.4293 15.0034 14.8268C16.6242 13.1663 18.5777 11.8966 20.7464 11.0961C22.5045 10.4123 25.1616 9.59202 30.0255 9.37683C35.3 9.14256 36.8826 9.08381 50.2245 9.08381C63.5869 9.08381 65.1688 9.14256 70.4242 9.37683C75.308 9.59202 77.9452 10.4123 79.7033 11.0961C81.8713 11.8966 83.8446 13.1663 85.4463 14.8268C87.1068 16.4484 88.3766 18.4019 89.1778 20.5706C89.8616 22.3287 90.6819 24.985 90.8971 29.8497C91.1314 35.1242 91.1901 36.7061 91.1901 50.0487C91.1901 63.3913 91.1314 64.9541 90.8971 70.2286Z" fill="black"/>
<path d="M50.1857 24.3203C36.0037 24.3203 24.4971 35.8262 24.4971 50.0089C24.4971 64.1917 36.0037 75.6975 50.1857 75.6975C64.3684 75.6975 75.8743 64.1917 75.8743 50.0089C75.8743 35.8262 64.3684 24.3203 50.1857 24.3203ZM50.1857 66.6725C40.9851 66.6725 33.5221 59.2102 33.5221 50.0089C33.5221 40.8076 40.9851 33.3454 50.1857 33.3454C59.387 33.3454 66.8492 40.8076 66.8492 50.0089C66.8492 59.2102 59.387 66.6725 50.1857 66.6725Z" fill="black"/>
<path d="M82.8876 23.3018C82.8876 26.6136 80.2023 29.2989 76.8897 29.2989C73.5779 29.2989 70.8926 26.6136 70.8926 23.3018C70.8926 19.9892 73.5779 17.3047 76.8897 17.3047C80.2023 17.3047 82.8876 19.9892 82.8876 23.3018Z" fill="black"/>
</g>
<defs>
<clipPath id="clip0_112_8">
<rect width="100" height="100" fill="white"/>
</clipPath>
</defs>
</svg>
