<svg width="268" height="392" viewBox="0 0 268 392" fill="none" xmlns="http://www.w3.org/2000/svg">
<path d="M46.1627 261.019C47.056 261.376 47.324 261.555 46.9666 261.555C46.788 261.376 46.52 261.197 46.1627 261.019ZM44.8228 260.215L45.0907 260.483H45.3587H44.8228C44.6441 260.483 44.5548 260.393 44.5548 260.215V259.947C44.5548 260.125 44.6441 260.215 44.8228 260.215ZM33.0314 225.913C33.0314 225.913 33.21 226.091 33.5673 226.448C33.5673 226.448 33.3887 226.27 33.0314 225.913ZM211.778 353.474C212.136 355.618 212.225 357.762 212.046 359.906C211.868 362.05 211.51 364.193 210.974 366.337C209.545 370.625 207.312 374.466 204.275 377.861C201.416 381.434 198.022 384.292 194.091 386.436C189.625 388.938 184.801 390.456 179.62 390.992C174.617 391.528 169.615 391.349 164.613 390.456C153 388.134 142.727 383.399 133.794 376.253C125.04 369.107 117.179 361.067 110.211 352.134C103.065 343.201 96.3655 334 90.1124 324.531C83.8594 315.241 77.8744 305.683 72.1574 295.857C69.4775 291.212 66.9763 286.656 64.6537 282.19C62.3312 277.545 60.098 272.899 57.9541 268.254C57.0608 265.932 56.0782 263.699 55.0062 261.555C54.1129 259.232 53.1303 256.91 52.0584 254.587L48.8425 248.155C48.3066 246.905 47.8599 245.922 47.5026 245.208C47.1453 244.493 46.6093 243.51 45.8947 242.26C45.1801 241.188 44.5548 240.205 44.0188 239.312C43.4828 238.24 42.8575 237.257 42.1429 236.364C41.0709 234.935 40.3563 233.952 39.999 233.416C39.8203 233.237 39.731 233.148 39.731 233.148C39.731 232.969 39.6417 232.791 39.463 232.612L38.3911 231.54C37.8551 230.826 37.3191 230.2 36.7832 229.664C36.2472 228.95 35.6219 228.324 34.9073 227.788C34.7286 227.431 34.5499 227.252 34.3713 227.252C34.1926 227.074 34.014 226.895 33.8353 226.716C33.8353 226.538 33.746 226.448 33.5673 226.448C33.5673 226.27 33.478 226.18 33.2993 226.18L33.0314 225.913C32.8527 225.734 32.674 225.645 32.4954 225.645C32.3167 225.466 32.0487 225.198 31.6914 224.841C30.7981 225.198 29.9942 225.555 29.2795 225.913C28.5649 226.091 27.761 226.359 26.8677 226.716C24.5451 227.252 22.3119 227.252 20.168 226.716C18.5601 226.18 16.9522 225.287 15.3443 224.037C13.915 222.786 13.0217 221.178 12.6644 219.213C12.1284 217.248 12.9324 215.997 15.0763 215.461C15.9696 215.104 16.8628 214.836 17.7561 214.657C18.6494 214.3 19.5427 214.21 20.436 214.389C22.5799 214.389 24.9024 214.925 27.4036 215.997C28.1183 215.818 28.7436 215.729 29.2795 215.729C29.8155 215.55 30.4408 215.372 31.1555 215.193C34.1926 214.478 37.1405 213.853 39.999 213.317C42.8575 212.781 45.716 212.156 48.5746 211.441C49.2892 211.441 49.6465 211.352 49.6465 211.173H50.9864C51.3438 210.995 52.0584 210.727 53.1303 210.369C54.0236 210.191 54.8276 210.012 55.5422 209.833C56.2568 209.655 57.0608 209.476 57.9541 209.297C59.562 208.761 61.0806 208.315 62.5099 207.957C64.1178 207.421 65.7257 206.796 67.3336 206.082C68.7629 205.546 70.1028 205.01 71.3534 204.474C72.7827 203.759 74.1226 202.955 75.3732 202.062C76.0878 201.704 76.7131 201.347 77.2491 200.99C77.7851 200.632 78.4104 200.275 79.125 199.918C79.125 199.918 79.2143 199.828 79.393 199.65L79.661 199.382L80.1969 198.846C80.5543 198.489 80.8223 198.31 81.0009 198.31C81.1796 198.131 81.3582 197.863 81.5369 197.506C83.6808 195.362 85.11 193.218 85.8247 191.074C85.8247 190.717 85.8247 190.538 85.8247 190.538C86.0033 190.36 86.0927 190.181 86.0927 190.002C86.0927 189.824 86.182 189.734 86.3606 189.734C86.3606 189.377 86.3606 189.02 86.3606 188.662C86.5393 188.305 86.6286 187.948 86.6286 187.59V183.571C86.6286 183.035 86.5393 182.588 86.3606 182.231V181.963C86.3606 181.784 86.182 181.159 85.8247 180.087C85.646 179.73 85.5567 179.462 85.5567 179.283C85.5567 179.104 85.4674 178.836 85.2887 178.479C85.2887 177.943 85.11 177.675 84.7527 177.675V177.407C84.5741 177.228 84.3954 177.05 84.2167 176.871C84.2167 176.692 84.0381 176.424 83.6808 176.067C83.6808 175.71 83.5021 175.531 83.1448 175.531C83.1448 175.352 83.0555 175.263 82.8768 175.263C82.8768 175.263 82.8768 175.174 82.8768 174.995C82.6982 174.816 82.5195 174.727 82.3408 174.727C82.1622 174.548 81.9835 174.37 81.8049 174.191H81.5369C81.1796 173.834 80.9116 173.655 80.7329 173.655C80.5543 173.477 80.2863 173.387 79.929 173.387C79.2143 173.03 78.589 172.762 78.0531 172.583C77.6957 172.583 77.4278 172.494 77.2491 172.315C76.8918 172.315 76.5345 172.315 76.1772 172.315C75.9985 172.137 75.7305 172.047 75.3732 172.047C73.5866 171.69 72.2467 171.511 71.3534 171.511H71.0854H69.7455H67.8696C67.155 171.511 66.4403 171.511 65.7257 171.511C65.0111 171.511 64.2964 171.601 63.5818 171.779C62.6885 171.779 61.8846 171.869 61.1699 172.047C60.634 172.047 59.9193 172.137 59.026 172.315C58.8474 172.315 58.6687 172.405 58.4901 172.583C58.3114 172.583 58.1327 172.583 57.9541 172.583H57.4181C57.0608 172.762 56.7035 172.851 56.3462 172.851C56.1675 172.851 55.8995 172.941 55.5422 173.119C49.6465 174.727 44.5548 177.228 40.267 180.623L39.999 180.891H39.731C39.731 181.248 39.5524 181.427 39.195 181.427L37.8551 182.767C37.3191 183.303 36.8725 183.839 36.5152 184.375C36.1579 184.732 35.8005 185.179 35.4432 185.715C34.9073 186.429 34.282 187.501 33.5673 188.93L32.7634 190.538C32.7634 190.717 32.674 190.896 32.4954 191.074C32.4954 191.074 32.4954 191.253 32.4954 191.61V191.878C32.1381 193.129 31.3341 193.575 30.0835 193.218C29.0116 192.861 28.0289 192.504 27.1357 192.146C25.8851 191.61 24.6345 190.717 23.3838 189.466C23.2052 189.109 22.8479 188.662 22.3119 188.126C21.9546 187.59 21.8653 187.054 22.0439 186.519C22.5799 184.196 23.5625 181.873 24.9918 179.551C27.1357 176.335 29.8155 173.744 33.0314 171.779C36.4258 169.635 39.9097 167.849 43.4828 166.42H16.1482C14.719 166.42 13.2897 166.062 11.8604 165.348C10.6098 164.633 9.53789 163.829 8.6446 162.936C8.10863 162.4 7.66198 161.596 7.30467 160.524C6.94735 159.273 7.48333 158.648 8.91259 158.648H112.355C113.785 158.648 115.125 159.095 116.375 159.988C117.804 160.702 118.966 161.506 119.859 162.4C120.395 162.936 120.842 163.74 121.199 164.812C121.735 165.884 121.288 166.42 119.859 166.42H78.0531C80.9116 167.67 83.5021 169.189 85.8247 170.975C88.3259 172.583 90.5591 174.638 92.5243 177.139C96.4548 182.32 97.8841 187.948 96.8121 194.022C96.2761 197.059 95.2042 199.65 93.5963 201.794C91.9884 203.938 89.9338 205.903 87.4326 207.689C84.9314 209.655 82.1622 211.263 79.125 212.513C76.2665 213.764 73.3186 214.836 70.2815 215.729C66.887 216.801 63.4925 217.694 60.098 218.409C56.7035 219.124 53.2197 219.927 49.6465 220.821L40.803 222.429C39.731 222.786 39.0164 222.965 38.6591 222.965H38.3911H38.1231C41.1603 225.645 44.0188 228.592 46.6987 231.808C49.3785 235.024 51.7904 238.329 53.9343 241.724C56.6142 246.19 59.026 250.835 61.1699 255.659C63.3138 260.304 65.3684 264.949 67.3336 269.594C68.2269 271.917 69.2095 274.239 70.2815 276.562C71.3534 278.706 72.4253 280.939 73.4973 283.262C74.5692 285.405 75.7305 287.639 76.9811 289.961C78.2317 292.105 79.5717 294.428 81.0009 296.929C84.0381 302.11 87.0753 307.202 90.1124 312.204C93.3283 317.207 96.6334 322.209 100.028 327.211C101.815 329.713 103.512 332.124 105.12 334.447C106.728 336.77 108.425 339.181 110.211 341.683C111.105 342.755 111.909 343.826 112.623 344.898C113.517 346.149 114.41 347.4 115.303 348.65C116.375 350.08 117.268 351.151 117.983 351.866C118.162 352.223 118.608 352.759 119.323 353.474V353.742L119.859 354.278C121.646 356.422 123.343 358.476 124.951 360.442C126.737 362.407 128.613 364.372 130.578 366.337L131.918 367.677L132.186 367.945C132.544 368.303 132.812 368.481 132.99 368.481C134.241 369.732 135.223 370.625 135.938 371.161C136.474 371.518 137.01 371.876 137.546 372.233C138.082 372.769 138.618 373.216 139.154 373.573C138.439 373.216 138.261 373.126 138.618 373.305C139.154 373.662 139.511 373.93 139.69 374.109C140.226 374.466 140.851 374.824 141.566 375.181C141.923 375.538 142.191 375.717 142.37 375.717C142.727 375.896 143.084 376.164 143.442 376.521C143.62 376.521 143.978 376.699 144.514 377.057C145.05 377.414 144.871 377.325 143.978 376.789C144.514 377.146 145.05 377.414 145.586 377.593C146.3 377.95 146.926 378.307 147.462 378.665C147.819 378.843 148.087 378.933 148.265 378.933C148.623 379.111 148.98 379.29 149.337 379.469C149.516 379.469 149.695 379.558 149.873 379.737C149.873 379.737 149.963 379.826 150.141 380.005C150.856 380.183 151.481 380.362 152.017 380.541C152.553 380.719 153.179 380.987 153.893 381.345C154.251 381.345 154.965 381.523 156.037 381.881H156.305C156.484 381.881 156.573 381.881 156.573 381.881C156.752 382.059 156.93 382.149 157.109 382.149C158.538 382.506 159.7 382.774 160.593 382.952C162.022 383.131 163.183 383.22 164.077 383.22C165.149 383.399 166.399 383.488 167.828 383.488C172.652 383.31 177.208 382.327 181.496 380.541C185.962 378.933 189.803 376.342 193.019 372.769C196.056 369.375 198.379 365.623 199.987 361.514C201.773 357.404 202.22 353.027 201.327 348.382C201.148 347.668 201.237 347.221 201.595 347.042C202.131 346.864 202.756 346.774 203.471 346.774C204.185 346.953 204.811 347.132 205.347 347.31C206.061 347.668 206.508 347.846 206.687 347.846C207.758 348.382 208.83 349.097 209.902 349.99C210.974 351.062 211.6 352.223 211.778 353.474ZM86.3606 181.963V182.231V181.963ZM170.439 62.7088C172.583 67.7112 174.37 72.9816 175.799 78.52C177.228 84.0584 178.122 89.6861 178.479 95.4031C179.015 100.942 178.925 106.48 178.211 112.018C177.496 117.557 176.067 122.916 173.923 128.097C172.851 130.599 171.601 133.011 170.171 135.333C168.921 137.477 167.313 139.532 165.348 141.497C163.204 143.998 160.881 146.231 158.38 148.196C155.879 149.983 153.288 151.68 150.608 153.288C148.822 154.36 147.035 155.432 145.249 156.504C143.462 157.397 141.586 158.291 139.621 159.184C141.765 159.72 143.462 160.792 144.713 162.4C145.249 162.936 145.695 163.74 146.052 164.812C146.588 165.884 146.142 166.42 144.713 166.42H124.882V266.914C124.882 267.629 124.614 268.076 124.078 268.254C123.72 268.433 123.184 268.522 122.47 268.522C121.934 268.344 121.398 268.165 120.862 267.986C120.326 267.629 119.968 267.45 119.79 267.45C118.718 266.914 117.557 266.2 116.306 265.306C115.055 264.235 114.43 263.073 114.43 261.823V261.287V166.42H102.639C101.209 166.42 99.8695 166.062 98.6189 165.348C97.1897 164.633 96.0284 163.829 95.1351 162.936C94.7778 162.4 94.4205 161.596 94.0631 160.524C93.5272 159.273 93.9738 158.648 95.4031 158.648H99.6909C98.9762 157.576 98.7976 156.683 99.1549 155.968C99.5122 155.611 100.316 155.432 101.567 155.432C105.319 156.147 108.981 156.415 112.554 156.236C113.447 156.236 114.073 156.147 114.43 155.968V154.36C114.43 153.11 115.145 152.663 116.574 153.02C118.182 153.378 119.254 153.735 119.79 154.092C119.968 154.271 120.415 154.539 121.13 154.896C121.487 154.717 121.755 154.628 121.934 154.628C122.291 154.628 122.648 154.539 123.006 154.36C130.509 152.038 137.298 148.822 143.373 144.713C145.874 143.105 148.196 141.407 150.34 139.621C152.663 137.834 154.807 135.69 156.772 133.189C160.166 129.08 162.757 124.524 164.544 119.522C166.33 114.52 167.491 109.428 168.027 104.247C168.385 101.388 168.474 98.619 168.295 95.9391C168.295 93.0806 168.117 90.3114 167.759 87.6315C167.402 84.5944 166.955 81.8252 166.419 79.324C166.062 76.8228 165.437 74.2322 164.544 71.5524C163.829 68.8725 162.936 66.282 161.864 63.7808C160.97 61.1009 159.988 58.5104 158.916 56.0092C158.559 55.2945 158.201 54.6692 157.844 54.1333C157.665 53.4186 157.397 52.7933 157.04 52.2573C157.04 52.0787 156.951 51.9894 156.772 51.9894C156.772 51.8107 156.683 51.7214 156.504 51.7214C156.504 51.5427 156.504 51.3641 156.504 51.1854C156.147 50.8281 155.789 50.2921 155.432 49.5775L151.412 43.1458C151.055 42.7885 150.787 42.5205 150.608 42.3418C150.608 42.1632 150.43 41.8952 150.072 41.5379C149.715 40.8233 149.536 40.466 149.536 40.466C149.358 40.466 149.268 40.3766 149.268 40.198C148.732 39.4833 148.196 38.858 147.66 38.3221C147.124 37.6074 146.588 36.9821 146.052 36.4462C145.338 35.7315 144.713 35.1062 144.177 34.5703C143.641 33.8556 143.015 33.141 142.301 32.4264L140.693 30.8184C140.514 30.8184 140.425 30.7291 140.425 30.5504L139.621 29.7465L135.601 26.5307C134.886 25.816 134.261 25.2801 133.725 24.9228C133.546 24.9228 133.278 24.8334 132.921 24.6548C132.564 24.2974 132.385 24.0295 132.385 23.8508C131.313 22.9575 130.152 22.2429 128.901 21.7069C127.829 20.9923 126.668 20.2776 125.418 19.563C125.06 19.2057 124.792 19.027 124.614 19.027C124.435 18.8484 124.256 18.7591 124.078 18.7591C123.899 18.7591 123.72 18.6697 123.542 18.4911C123.184 18.3124 122.827 18.1337 122.47 17.9551C122.291 17.7764 122.023 17.5978 121.666 17.4191C120.951 17.0618 120.236 16.7938 119.522 16.6152C118.807 16.2579 118.093 15.9005 117.378 15.5432C117.199 15.5432 117.021 15.4539 116.842 15.2752C116.663 15.2752 116.485 15.1859 116.306 15.0072H116.038C115.323 14.4713 114.609 14.114 113.894 13.9353C112.644 13.7566 111.214 13.31 109.606 12.5954C109.249 12.4167 108.802 12.3274 108.266 12.3274C107.73 12.1487 107.284 11.9701 106.926 11.7914C106.748 11.7914 106.659 11.7914 106.659 11.7914C106.48 11.6128 106.212 11.5234 105.855 11.5234H105.587C105.408 11.5234 105.229 11.4341 105.051 11.2555L101.031 10.4515C98.1723 9.73685 95.0458 9.20087 91.6513 8.84356C91.1153 8.84356 90.6687 8.84356 90.3113 8.84356C89.7754 8.66491 89.2394 8.57559 88.7034 8.57559H87.6315L86.8275 8.30759H82.2717C78.8773 8.12893 75.4828 8.12893 72.0883 8.30759C66.0139 8.48626 60.1182 9.64753 54.4012 11.7914C49.0414 13.9353 44.307 16.8832 40.1979 20.635C35.9101 24.2081 32.1583 28.3172 28.9425 32.9623C25.548 37.9647 22.7788 43.2351 20.6349 48.7735C18.3123 54.1333 16.4364 59.6716 15.0072 65.3887C13.5779 71.463 12.4166 77.8947 11.5234 84.6837C10.6301 91.4727 10.3621 98.4403 10.7194 105.587C10.8981 108.981 11.2554 112.286 11.7913 115.502C12.3273 118.718 13.3099 121.934 14.7392 125.15C14.9179 125.507 15.0965 125.954 15.2752 126.49C15.4538 126.847 15.6325 127.294 15.8111 127.83C15.9898 128.008 16.0791 128.187 16.0791 128.365C16.0791 128.365 16.1685 128.455 16.3471 128.633C16.3471 128.812 16.4364 128.991 16.6151 129.169C16.9724 130.063 17.4191 130.867 17.955 131.581C18.491 132.117 18.9376 132.743 19.295 133.457C19.4736 133.636 19.6523 133.815 19.8309 133.993C19.8309 134.172 19.9203 134.351 20.0989 134.529C20.6349 135.065 20.9029 135.422 20.9029 135.601C21.4389 136.137 21.7962 136.584 21.9748 136.941L23.5827 138.549L24.3867 139.353C24.744 139.353 24.9227 139.532 24.9227 139.889C25.6373 140.425 26.2626 140.961 26.7986 141.497C27.3346 142.033 27.9599 142.569 28.6745 143.105C28.8531 143.105 29.1211 143.283 29.4784 143.641L30.0144 144.177C30.729 144.534 31.265 144.891 31.6223 145.249C32.6943 145.963 33.5876 146.499 34.3022 146.857C34.6595 147.214 35.0168 147.392 35.3741 147.392V147.66C36.2674 148.018 37.0714 148.375 37.786 148.732C38.322 149.09 39.0366 149.447 39.9299 149.804L41.5378 150.608H41.8058C42.1631 150.966 42.5204 151.234 42.8778 151.412C43.2351 151.412 43.5924 151.502 43.9497 151.68C44.843 152.038 45.647 152.306 46.3616 152.484C46.8976 152.484 47.6122 152.663 48.5055 153.02C48.6841 153.02 48.8628 153.11 49.0414 153.288C49.2201 153.288 49.3988 153.288 49.5774 153.288C49.9347 153.288 50.2027 153.378 50.3814 153.556C50.3814 153.556 50.4707 153.556 50.6494 153.556C51.0067 153.735 51.4533 153.824 51.9893 153.824C52.3466 153.824 52.7039 153.914 53.0612 154.092C54.1332 154.092 54.9371 154.181 55.4731 154.36H56.2771H57.081C59.9396 154.36 62.4408 155.611 64.5847 158.112C64.942 158.648 65.3886 159.541 65.9246 160.792C66.2819 161.864 65.7459 162.31 64.3167 162.132C56.4557 161.774 48.8628 159.988 41.5378 156.772C34.2129 153.378 27.6919 149.268 21.9748 144.445C19.295 142.301 16.6151 139.71 13.9352 136.673C13.7566 136.494 13.6673 136.316 13.6673 136.137C13.4886 135.958 13.2206 135.78 12.8633 135.601C12.6846 135.244 12.4166 134.886 12.0593 134.529C11.702 133.993 11.7913 133.993 12.3273 134.529C11.2554 133.457 10.5407 132.564 10.1834 131.849C9.64745 131.135 9.20081 130.509 8.84349 129.973C8.30752 129.259 7.86087 128.544 7.50356 127.83C4.10907 121.576 1.87585 114.787 0.803905 107.463C0.446589 103.889 0.267931 100.406 0.267931 97.0111C0.0892703 93.6166 0.178598 90.1327 0.535914 86.5596C0.89323 83.1651 1.25055 79.7706 1.60786 76.3761C1.96518 72.9816 2.50115 69.6765 3.21578 66.4606C4.28772 60.7436 5.80631 55.0265 7.77155 49.3095C9.73678 43.5925 12.1487 38.1434 15.0072 32.9623C17.8657 27.6026 21.2602 22.7789 25.1907 18.4911C29.1211 14.2033 33.6769 10.5408 38.858 7.50363C44.575 4.28779 50.56 2.23323 56.813 1.33994C63.0661 0.446656 69.4084 0.089345 75.8401 0.268011C82.8077 0.625321 89.686 1.51861 96.475 2.94787C103.085 4.19847 109.606 6.1637 116.038 8.84356C128.187 14.0246 138.996 21.2603 148.464 30.5504C157.933 39.8406 165.258 50.5601 170.439 62.7088ZM266.205 302.021C266.562 302.199 266.83 302.557 267.009 303.093C267.187 303.629 267.098 304.075 266.741 304.432C263.525 307.112 259.952 309.078 256.021 310.328C252.269 311.4 248.339 311.936 244.23 311.936C240.121 311.936 236.011 311.489 231.902 310.596C227.972 309.703 224.131 308.631 220.379 307.38C214.662 305.415 209.124 303.093 203.764 300.413C198.404 297.733 193.134 294.696 187.953 291.301C183.843 288.443 179.734 285.495 175.625 282.458C171.516 279.242 167.764 275.758 164.37 272.006C163.119 270.577 161.958 269.148 160.886 267.718C159.814 266.289 158.742 264.86 157.67 263.431C156.598 261.644 155.526 259.947 154.454 258.339C153.382 256.731 152.4 254.944 151.506 252.979C149.72 249.585 148.201 246.19 146.951 242.796C145.879 239.222 145.164 235.471 144.807 231.54C144.092 225.466 144.717 219.481 146.683 213.585C148.648 207.689 151.953 202.687 156.598 198.578C160.707 194.826 165.174 191.878 169.998 189.734C175 187.412 180.092 185.536 185.273 184.107C190.454 182.677 195.724 181.695 201.084 181.159C206.622 180.623 212.071 180.355 217.431 180.355C218.86 180.355 220.2 180.712 221.451 181.427C222.701 182.141 223.773 183.035 224.667 184.107C225.203 184.643 225.649 185.447 226.007 186.519C226.543 187.59 226.096 188.126 224.667 188.126C221.272 188.126 217.967 188.305 214.751 188.662C211.535 188.841 208.23 189.109 204.836 189.466C203.942 189.645 203.049 189.824 202.156 190.002C201.441 190.002 200.637 190.181 199.744 190.538C198.672 190.717 197.779 190.896 197.064 191.074C196.528 191.074 195.814 191.164 194.92 191.342C191.526 192.236 188.131 193.307 184.737 194.558C179.913 196.345 175.357 198.667 171.069 201.526C166.782 204.384 163.209 208.047 160.35 212.513C156.777 218.23 154.99 224.483 154.99 231.272C155.169 238.061 156.509 244.582 159.01 250.835C159.903 252.8 160.707 254.498 161.422 255.927C162.137 257.178 162.941 258.696 163.834 260.483C164.906 262.091 165.978 263.699 167.05 265.306C168.122 266.736 169.194 268.165 170.265 269.594C170.623 269.952 170.98 270.488 171.337 271.202C171.695 271.381 172.052 271.649 172.409 272.006C172.767 272.542 173.392 273.257 174.285 274.15L174.821 274.686L175.625 275.49C175.983 275.847 176.429 276.205 176.965 276.562C177.501 276.919 177.948 277.277 178.305 277.634C179.198 278.527 180.092 279.331 180.985 280.046C181.878 280.582 182.861 281.296 183.933 282.19C183.933 282.19 184.111 282.368 184.469 282.726C185.183 283.083 185.719 283.44 186.077 283.798C186.613 284.155 187.149 284.512 187.685 284.869C188.221 285.227 188.757 285.584 189.293 285.941C190.364 286.835 191.436 287.639 192.508 288.353C193.759 288.889 195.01 289.515 196.26 290.229C196.617 290.587 197.153 290.944 197.868 291.301C198.225 291.658 198.583 291.837 198.94 291.837C199.476 292.194 200.012 292.552 200.548 292.909C201.263 293.088 201.888 293.356 202.424 293.713C203.853 294.428 205.193 295.142 206.444 295.857C207.694 296.393 208.945 296.929 210.195 297.465C210.91 297.822 211.357 298.001 211.535 298.001C212.25 298.358 212.875 298.626 213.411 298.805C214.126 299.162 214.751 299.43 215.287 299.609C215.823 299.787 216.448 299.966 217.163 300.145C218.95 300.859 220.29 301.306 221.183 301.485C222.255 301.842 222.88 302.021 223.059 302.021C223.237 302.021 223.416 302.11 223.595 302.289H224.131C225.381 302.646 226.632 302.914 227.883 303.093C229.133 303.271 230.473 303.539 231.902 303.897H234.046C234.046 304.075 234.225 304.165 234.582 304.165H234.85H238.602C240.925 304.165 243.158 303.897 245.302 303.361H245.57C245.748 303.361 245.927 303.271 246.106 303.093H246.91C247.624 302.735 248.071 302.557 248.25 302.557C248.785 302.199 249.321 302.021 249.857 302.021C250.393 301.842 250.929 301.574 251.465 301.217C252.001 300.859 252.448 300.591 252.805 300.413C253.341 300.234 253.877 299.966 254.413 299.609C254.771 299.43 254.949 299.251 254.949 299.073C255.128 298.894 255.396 298.715 255.753 298.537C256.11 298.537 256.289 298.358 256.289 298.001H256.557V297.733C257.45 296.84 258.522 296.661 259.773 297.197C261.202 297.733 262.363 298.269 263.257 298.805C263.793 299.162 264.329 299.609 264.865 300.145C265.401 300.681 265.847 301.306 266.205 302.021ZM184.469 282.458C184.111 282.1 183.933 282.011 183.933 282.19C183.933 282.19 184.111 282.279 184.469 282.458ZM248.518 162.4C249.053 162.936 249.5 163.74 249.857 164.812C250.393 165.884 249.947 166.42 248.518 166.42H144.807C143.378 166.42 142.038 166.062 140.787 165.348C139.358 164.633 138.196 163.829 137.303 162.936C136.767 162.4 136.321 161.596 135.963 160.524C135.606 159.273 136.142 158.648 137.571 158.648H241.014C242.443 158.648 243.783 159.095 245.034 159.988C246.463 160.702 247.624 161.506 248.518 162.4ZM251.832 162.4C252.368 162.936 252.814 163.74 253.172 164.812C253.708 165.884 253.261 166.42 251.832 166.42H226.373C227.088 167.134 227.713 167.849 228.249 168.563C228.785 169.099 229.053 169.725 229.053 170.439V191.074V263.699C229.053 264.413 228.785 264.86 228.249 265.039C227.892 265.217 227.356 265.306 226.641 265.306C226.105 265.128 225.48 264.949 224.765 264.771C224.229 264.413 223.872 264.235 223.693 264.235C222.8 263.699 221.639 262.984 220.209 262.091C218.959 261.019 218.333 259.857 218.333 258.607V237.972V166.42H194.483C193.053 166.42 191.713 166.062 190.463 165.348C189.212 164.633 188.14 163.829 187.247 162.936C186.711 162.4 186.264 161.596 185.907 160.524C185.371 159.273 185.818 158.648 187.247 158.648H244.328C245.757 158.648 247.097 159.095 248.348 159.988C249.777 160.702 250.938 161.506 251.832 162.4Z" fill="#E8E5C3"/>
</svg>
