<svg width="808" height="101" viewBox="0 0 808 101" fill="none" xmlns="http://www.w3.org/2000/svg">
<path d="M10.7801 61.32C3.50012 80.5 9.38012 98.28 22.9601 98.28C33.1801 98.28 35.9801 89.88 36.5401 80.64H37.9401L40.1801 94.5C35.7001 98.7 29.1201 100.8 22.9601 100.8C6.58012 100.8 0.000117134 82.32 8.40012 60.2L30.9401 1.40002H42.9801L76.0201 87.78C78.2601 93.52 82.1801 98 87.9201 98V99.4H58.5201V98C64.2601 98 65.6601 93.52 63.4201 87.78L51.6601 57.26H12.3201L10.7801 61.32ZM13.4401 54.32H50.5401L32.0601 5.88002L13.4401 54.32ZM161.774 99.4H152.954L106.054 13.3V87.78C106.054 93.52 108.714 98 114.454 98V99.4H94.8545V98C100.594 98 103.254 93.52 103.254 87.78V13.02C103.254 7.28002 100.594 2.80002 94.8545 2.80002V1.40002H112.214L158.974 87.5V13.02C158.974 7.28002 156.314 2.80002 150.574 2.80002V1.40002H170.174V2.80002C164.434 2.80002 161.774 7.28002 161.774 13.02V99.4ZM172.921 50.4C172.921 22.54 195.461 1.90735e-05 223.321 1.90735e-05C251.181 1.90735e-05 273.721 22.54 273.721 50.4C273.721 78.26 251.181 100.8 223.321 100.8C195.461 100.8 172.921 78.26 172.921 50.4ZM186.921 50.4C186.921 76.72 203.161 97.86 223.321 97.86C243.481 97.86 259.721 76.72 259.721 50.4C259.721 24.08 243.481 2.94002 223.321 2.94002C203.161 2.94002 186.921 24.08 186.921 50.4ZM296.05 13.02V54.88L331.19 10.92C333.99 7.42002 334.83 2.80002 329.09 2.80002V1.40002H349.25V2.80002C343.79 2.80002 339.03 5.18002 334.97 10.36L310.33 41.3C318.87 37.1 329.93 42.98 333.29 55.16L338.47 74.2C340.99 83.58 343.93 95.48 349.11 97.58V99.26C340.43 99.26 332.73 93.24 328.67 77.42L325.45 64.96C320.69 46.48 312.71 38.36 304.45 48.58L296.05 59.08V87.78C296.05 93.52 298.71 98 304.45 98V99.4H275.05V98C280.79 98 283.45 93.52 283.45 87.78V13.02C283.45 7.28002 280.79 2.80002 275.05 2.80002V1.40002H304.45V2.80002C298.71 2.80002 296.05 7.28002 296.05 13.02ZM377.261 13.02V63.56C386.781 45.36 417.441 53.2 417.441 23.94V13.02C417.441 7.28002 414.781 2.80002 409.041 2.80002V1.40002H438.441V2.80002C432.701 2.80002 430.041 7.28002 430.041 13.02V87.78C430.041 93.52 432.701 98 438.441 98V99.4H409.041V98C414.781 98 417.441 93.52 417.441 87.78V37.66C407.921 56.84 377.261 48.72 377.261 76.72V87.78C377.261 93.52 379.921 98 385.661 98V99.4H356.261V98C362.001 98 364.661 93.52 364.661 87.78V13.02C364.661 7.28002 362.001 2.80002 356.261 2.80002V1.40002H385.661V2.80002C379.921 2.80002 377.261 7.28002 377.261 13.02ZM466.401 13.02V87.78C466.401 93.52 469.061 98 474.801 98V99.4H445.401V98C451.141 98 453.801 93.52 453.801 87.78V13.02C453.801 7.28002 451.141 2.80002 445.401 2.80002V1.40002H474.801V2.80002C469.061 2.80002 466.401 7.28002 466.401 13.02ZM518.136 99.4V98C523.876 98 526.536 93.52 526.536 87.78V13.02C526.536 7.28002 523.876 2.80002 518.136 2.80002V1.40002H550.056C575.116 1.40002 588.836 12.74 588.836 26.74C588.836 38.78 578.756 48.86 559.996 51.38C566.716 53.2 572.316 57.26 575.256 66.22L578.756 76.72C581.556 85.12 584.636 95.76 590.376 97.58V99.26C581.556 99.26 573.156 93.8 568.536 79.8L564.896 68.74C560.836 56.56 552.296 52.08 544.316 52.08H539.136V87.78C539.136 93.52 541.796 98 547.536 98V99.4H518.136ZM574.836 26.74C574.836 14.28 567.416 4.34002 550.056 4.34002H539.136V49.14H550.056C567.416 49.14 574.836 39.2 574.836 26.74ZM618.433 73.78V96.46H635.093C654.833 96.46 654.133 86.94 652.873 77.14H654.273L657.913 99.4H597.433V98C603.173 98 605.833 93.52 605.833 87.78V13.02C605.833 7.28002 603.173 2.80002 597.433 2.80002V1.40002H657.913L654.273 23.66H652.873C654.133 13.86 654.833 4.34002 635.093 4.34002H618.433V54.88C620.813 48.86 625.153 44.52 632.713 44.52C639.713 44.52 643.073 43.54 645.033 36.54H646.433L643.353 56H641.953C642.933 48.44 639.153 47.46 632.293 47.46C619.273 47.46 618.433 64.68 618.433 73.78ZM685.972 73.78V96.46H702.632C722.372 96.46 721.672 86.94 720.412 77.14H721.812L725.452 99.4H664.972V98C670.712 98 673.372 93.52 673.372 87.78V13.02C673.372 7.28002 670.712 2.80002 664.972 2.80002V1.40002H725.452L721.812 23.66H720.412C721.672 13.86 722.372 4.34002 702.632 4.34002H685.972V54.88C688.352 48.86 692.692 44.52 700.252 44.52C707.252 44.52 710.612 43.54 712.572 36.54H713.972L710.892 56H709.492C710.472 48.44 706.692 47.46 699.832 47.46C686.812 47.46 685.972 64.68 685.972 73.78ZM763.591 4.34002H755.331C735.591 4.34002 736.291 13.86 737.551 23.66H736.151L732.511 1.40002H807.271L803.631 23.66H802.231C803.491 13.86 804.191 4.34002 784.451 4.34002H776.191V87.78C776.191 93.52 778.851 98 784.591 98V99.4H755.191V98C760.931 98 763.591 93.52 763.591 87.78V4.34002Z" fill="#E8E5C3"/>
</svg>
